<svg id="visual" viewBox="0 0 900 600" width="900" height="600" xmlns="http://www.w3.org/2000/svg" xmlns:xlink="http://www.w3.org/1999/xlink" version="1.1"><path d="M0 181L82 211L164 205L245 175L327 127L409 151L491 73L573 199L655 163L736 247L818 289L900 229L900 0L818 0L736 0L655 0L573 0L491 0L409 0L327 0L245 0L164 0L82 0L0 0Z" fill="#038373"></path><path d="M0 349L82 331L164 295L245 415L327 355L409 373L491 283L573 361L655 325L736 337L818 409L900 313L900 227L818 287L736 245L655 161L573 197L491 71L409 149L327 125L245 173L164 203L82 209L0 179Z" fill="#00957c"></path><path d="M0 445L82 421L164 409L245 487L327 421L409 487L491 391L573 475L655 415L736 391L818 481L900 433L900 311L818 407L736 335L655 323L573 359L491 281L409 371L327 353L245 413L164 293L82 329L0 347Z" fill="#00a784"></path><path d="M0 529L82 565L164 559L245 565L327 553L409 559L491 499L573 541L655 517L736 553L818 547L900 559L900 431L818 479L736 389L655 413L573 473L491 389L409 485L327 419L245 485L164 407L82 419L0 443Z" fill="#00b98a"></path><path d="M0 601L82 601L164 601L245 601L327 601L409 601L491 601L573 601L655 601L736 601L818 601L900 601L900 557L818 545L736 551L655 515L573 539L491 497L409 557L327 551L245 563L164 557L82 563L0 527Z" fill="#00cc8e"></path></svg>